<?xml version="1.0" encoding="utf-8"?>
<!-- Generator: Adobe Illustrator 16.0.3, SVG Export Plug-In . SVG Version: 6.00 Build 0)  -->
<!DOCTYPE svg PUBLIC "-//W3C//DTD SVG 1.1//EN" "http://www.w3.org/Graphics/SVG/1.1/DTD/svg11.dtd">
<svg version="1.1" id="Var_2" xmlns="http://www.w3.org/2000/svg" xmlns:xlink="http://www.w3.org/1999/xlink" x="0px" y="0px"
	 width="25.5px" height="30px" viewBox="0 0 25.5 30" enable-background="new 0 0 25.5 30" xml:space="preserve">
<g display="none">
	<g display="inline">
		<path d="M524.608,743.775c-0.393,0.479-0.063-0.048-0.053-0.63c0.022-1.19,0.373-2.411,0.64-3.566
			c0.442-1.919,0.502-3.957,0.703-5.913c0.474-4.599,0.77-9.247,1.601-13.798c0.61-3.338,1.589-6.734,4.071-9.179
			c2.207-2.174,5.548-1.285,6.404,1.7c0.945,3.298-1.877,4.806-4.436,5.648c-0.494,0.162-0.436,0.974,0.127,0.941
			c2.034-0.117,3.51,0.697,4.857,2.155c2.344,2.537,2.338,5.243,0.195,7.948c-1.088,1.373-2.746,2.231-4.293,2.972
			c-1.28,0.612-2.635,0.541-3.766,1.438c-0.434,0.345,0.125,1.031,0.582,0.755c0.969-0.584,2.036-0.497,3.033-0.944
			c1.205-0.541,2.426-1.112,3.475-1.929c1.676-1.305,3.386-3.222,3.636-5.443c0.466-4.126-3.658-8.164-7.72-7.911
			c0.043,0.314,0.085,0.628,0.127,0.941c1.751-0.586,3.396-1.146,4.522-2.68c1.087-1.48,0.749-3.878,0.067-5.415
			c-1.796-4.052-6.604-2.063-8.587,0.463c-3.115,3.966-3.516,9.779-3.994,14.586c-0.343,3.451-0.628,6.91-0.928,10.365
			c-0.234,2.688-1.261,5.588-0.79,8.287c0.045,0.252,0.445,0.242,0.498,0c0.048-0.239,0.102-0.478,0.163-0.714
			C524.763,743.781,524.663,743.708,524.608,743.775L524.608,743.775z"/>
	</g>
</g>
<g display="none">
	<g display="inline">
		<path d="M422.554,570.681c-1.094-4.234-6.454-5.539-9.91-3.71c-3.966,2.099-5.756,7.921-4.506,12.01
			c1.329,4.346,6.534,5.853,9.919,2.792c3.968-3.586,5.594-9.098,6.073-14.272c-0.976,0-1.952,0-2.928,0
			c0.325,6.581,0.729,13.509-1.334,19.869c-0.638,1.964-2.192,5.005-4.535,5.172c-2.607,0.186-3.861-3.651-6.277-4.12
			c-1.565-0.305-2.66,1.84-1.129,2.677c1.151,0.63,2.131,2.21,3.215,3.027c1.32,0.995,2.555,1.512,4.191,1.668
			c2.745,0.262,4.971-2.476,6.21-4.531c4.072-6.754,2.965-16.285,2.587-23.762c-0.097-1.907-2.758-1.862-2.928,0
			c-0.293,3.203-1.158,6.312-2.703,9.139c-1.61,2.947-5.272,5.834-7.49,1.826c-1.505-2.72,0.352-6.625,2.31-8.563
			c2.763-2.735,5.807,0.068,8.392,1.427C422.153,571.562,422.684,571.183,422.554,570.681L422.554,570.681z"/>
	</g>
</g>
<path d="M11.396,0.155C1.959,1.777-1.713,12.456,0.739,20.802c1.241,4.225,4.015,7.839,8.425,8.857
	c2.197,0.508,4.446,0.025,6.652-0.113c2.103-0.132,4.006-0.763,5.614-2.124c1.235-1.045-0.351-2.968-1.689-2.19
	c-2.416,1.403-5.404,1.574-8.152,1.659c-3.524,0.11-5.702-2.08-7.215-5.032C1.47,16.197,2.866,8.376,8.127,4.629
	c5.011-3.569,12.124-0.785,14.02,4.869c0.892,2.661,0.12,5.42-1.299,7.725c-1.328,2.155-2.184,1.399-2.893-0.774
	c-0.508-1.559-0.695-3.229-0.783-4.865c0.487-0.259,0.728-0.95,0.261-1.468c-5.299-5.875-15.478,0.994-12.317,8.08
	c1.487,3.334,5.081,5.069,8.368,3.116c0.951-0.565,1.642-1.373,2.155-2.31c0.653,1.385,1.643,2.423,3.152,2.615
	c3.553,0.452,5.647-4.252,6.345-7.011C27.146,6.656,19.332-1.208,11.396,0.155z M7.83,17.319c-1.267-2.135,0.566-4.907,2.243-6.157
	c1.329-0.991,2.903-0.902,4.377-0.412c-0.024,0.109-0.04,0.225-0.037,0.354c0.035,1.876-0.159,3.68-0.749,5.468
	C12.636,19.688,9.506,20.145,7.83,17.319z"/>
<g display="none">
	<g display="inline">
		<path d="M191.505,97.877c-1.774,2.755-3.958,5.277-5.929,7.89c-2.062,2.734-4.56,5.259-6.438,8.11
			c-1.975,2.997-3.714,6.017-6.058,8.758c-1.581,1.85-4.378,4.27-4.39,6.865c-0.002,0.517,0.542,0.765,0.97,0.557
			c1.326-0.647,2.073-1.939,3.011-3.046c1.101-1.299,2.242-2.561,3.327-3.874c2.046-2.476,3.597-5.286,5.311-7.99
			c1.016-1.604,2.44-2.964,3.664-4.407c0.993-1.172,1.749-2.53,2.624-3.791c1.81-2.608,4.199-5.497,4.959-8.628
			C192.71,97.677,191.858,97.329,191.505,97.877L191.505,97.877z"/>
	</g>
</g>
<g display="none">
	<g display="inline">
		<path d="M176.266,99.568c-2.177-2.648-5.624-0.22-7.1,1.841c-1.826,2.548-2.094,6.267,0.375,8.48
			c2.37,2.124,6.035,1.708,8.344-0.226c3.395-2.843,1.124-8.151-0.802-11.13c-0.767-1.187-2.652-0.439-2.292,0.966
			c0.581,2.262,2.828,5.288,1.454,7.579c-0.854,1.422-3.041,1.552-4.363,0.852c-1.637-0.867-1.372-3.055-0.742-4.462
			c0.949-2.12,2.614-3.135,4.86-3.261C176.345,100.189,176.475,99.822,176.266,99.568L176.266,99.568z"/>
	</g>
</g>
<g display="none">
	<g display="inline">
		<path d="M192.512,111.189c-1.722-0.33-3.018-0.877-4.792-0.316c-1.564,0.495-2.892,2.265-3.482,3.71
			c-1.344,3.295,0.283,8.542,4.429,8.808c3.344,0.214,6.035-3.436,6.891-6.338c0.776-2.63-1.484-7.59-4.835-6.226
			c-0.598,0.244-1.013,0.907-0.623,1.532c0.851,1.365,2.583,1.53,2.577,3.405c-0.005,1.535-1.684,3.481-2.86,4.311
			c-1.225,0.864-2.436-0.805-2.826-1.771c-0.417-1.033-0.276-2.092,0.181-3.077c0.985-2.125,3.087-2.488,5.162-2.726
			C193.023,112.422,193.313,111.343,192.512,111.189L192.512,111.189z"/>
	</g>
</g>
<g display="none">
	<g display="inline">
		<path d="M172.238,127.232c1.647-4.97,5.817-9.242,8.555-13.64c1.405-2.257,2.658-4.558,4.207-6.728
			c1.681-2.354,3.611-4.511,5.294-6.86c0.227-0.317-0.274-0.69-0.534-0.412c-3.834,4.109-6.841,8.762-9.675,13.586
			c-2.621,4.464-7.145,8.771-8.322,13.922C171.693,127.412,172.139,127.533,172.238,127.232L172.238,127.232z"/>
	</g>
</g>
</svg>
