<?xml version="1.0" encoding="utf-8"?>
<!-- Generator: Adobe Illustrator 16.0.3, SVG Export Plug-In . SVG Version: 6.00 Build 0)  -->
<!DOCTYPE svg PUBLIC "-//W3C//DTD SVG 1.0//EN" "http://www.w3.org/TR/2001/REC-SVG-20010904/DTD/svg10.dtd">
<svg version="1.0"
	 id="svg30" xmlns:dc="http://purl.org/dc/elements/1.1/" xmlns:cc="http://creativecommons.org/ns#" xmlns:rdf="http://www.w3.org/1999/02/22-rdf-syntax-ns#" xmlns:svg="http://www.w3.org/2000/svg"
	 xmlns="http://www.w3.org/2000/svg" xmlns:xlink="http://www.w3.org/1999/xlink" x="0px" y="0px" width="122.992px"
	 height="123.49px" viewBox="0 0 122.992 123.49" enable-background="new 0 0 122.992 123.49" xml:space="preserve">
<g id="g24">
	<path id="path22" fill="#FFFFFF" d="M61.496,3.547c-31.703,0-57.394,25.7-57.394,57.397s25.69,57.398,57.394,57.398
		c31.702,0,57.397-25.701,57.397-57.398C118.894,29.248,93.198,3.547,61.496,3.547z"/>
</g>
<g id="g28">
	<path id="path26" fill="#1CAAD9" d="M61.496,0.49C27.531,0.49,0,28.024,0,61.99s27.53,61.5,61.496,61.5
		c33.964,0,61.496-27.534,61.496-61.5C122.996,28.024,95.466,0.49,61.496,0.49z M56.154,98.587L29.641,83.281V52.406l26.513,14.321
		V98.587z M60.876,59.461L29.508,42.832l31.368-18.113l31.372,18.113L60.876,59.461z M92.269,83.343l-26.414,15.25V66.851
		L92.269,52.58V83.343z"/>
</g>
</svg>
