<?xml version="1.0" encoding="utf-8"?>
<!-- Generator: Adobe Illustrator 16.0.3, SVG Export Plug-In . SVG Version: 6.00 Build 0)  -->
<!DOCTYPE svg PUBLIC "-//W3C//DTD SVG 1.1//EN" "http://www.w3.org/Graphics/SVG/1.1/DTD/svg11.dtd">
<svg version="1.1"
	 id="svg30" xmlns:dc="http://purl.org/dc/elements/1.1/" xmlns:cc="http://creativecommons.org/ns#" xmlns:rdf="http://www.w3.org/1999/02/22-rdf-syntax-ns#" xmlns:svg="http://www.w3.org/2000/svg"
	 xmlns="http://www.w3.org/2000/svg" xmlns:xlink="http://www.w3.org/1999/xlink" x="0px" y="0px" width="122.991px"
	 height="123.49px" viewBox="0 358.818 122.991 123.49" enable-background="new 0 358.818 122.991 123.49" xml:space="preserve">
<g id="g24">
	<path id="path22" fill="#FFFFFF" d="M61.496,363.547c-31.703,0-57.394,25.7-57.394,57.398c0,31.697,25.69,57.398,57.394,57.398
		c31.702,0,57.397-25.701,57.397-57.398C118.894,389.248,93.198,363.547,61.496,363.547z"/>
</g>
<g id="g28">
	<path id="path26" fill="#1CAAD9" d="M61.496,359.307C27.531,359.307,0,386.842,0,420.807c0,33.966,27.53,61.501,61.496,61.501
		c33.965,0,61.495-27.535,61.495-61.501C122.996,386.842,95.466,359.307,61.496,359.307z M56.154,457.404l-26.513-15.305v-30.875
		l26.513,14.321V457.404z M60.876,418.279L29.508,401.65l31.368-18.114l31.372,18.114L60.876,418.279z M92.269,442.16l-26.414,15.25
		v-31.742l26.414-14.271V442.16z"/>
</g>
</svg>
