<?xml version="1.0" encoding="utf-8"?>
<!-- Generator: Adobe Illustrator 16.0.3, SVG Export Plug-In . SVG Version: 6.00 Build 0)  -->
<!DOCTYPE svg PUBLIC "-//W3C//DTD SVG 1.0//EN" "http://www.w3.org/TR/2001/REC-SVG-20010904/DTD/svg10.dtd">
<svg version="1.0"
	 id="svg8" xmlns:inkscape="http://www.inkscape.org/namespaces/inkscape" xmlns:sodipodi="http://sodipodi.sourceforge.net/DTD/sodipodi-0.dtd" xmlns:dc="http://purl.org/dc/elements/1.1/" xmlns:cc="http://creativecommons.org/ns#" xmlns:rdf="http://www.w3.org/1999/02/22-rdf-syntax-ns#" xmlns:svg="http://www.w3.org/2000/svg" sodipodi:docname="Xing Logo 07.2021.svg" inkscape:version="1.0.2-2 (e86c870879, 2021-01-15)"
	 xmlns="http://www.w3.org/2000/svg" xmlns:xlink="http://www.w3.org/1999/xlink" x="0px" y="0px" width="93.5px"
	 height="109.067px" viewBox="306.5 0 93.5 109.067" enable-background="new 306.5 0 93.5 109.067" xml:space="preserve">
<sodipodi:namedview  showgrid="false" fit-margin-left="0" bordercolor="#666666" inkscape:cx="258.02565" guidetolerance="10" inkscape:zoom="3.7364835" fit-margin-top="0" borderopacity="1" pagecolor="#ffffff" gridtolerance="10" inkscape:cy="91.570349" objecttolerance="10" id="namedview10" inkscape:document-rotation="0" inkscape:current-layer="svg8" inkscape:window-maximized="1" inkscape:window-y="-8" inkscape:window-x="-8" inkscape:pageshadow="2" inkscape:pageopacity="0" inkscape:window-width="1600" fit-margin-bottom="0" inkscape:window-height="837" fit-margin-right="0">
	</sodipodi:namedview>
<path id="path4" fill="#B0D400" d="M381.877,0.461c-2.171,0-3.473,1.302-4.341,3.038c0,0-33.424,59.469-34.726,61.205l22.138,40.369
	c0.868,1.302,2.17,3.038,4.341,3.038h15.626c0.868,0,1.736-0.435,2.171-0.868c0.434-0.868,0.434-1.736,0-2.604l-21.704-39.935
	l34.292-60.771c0.435-0.868,0.435-1.736,0-2.604c-0.434-0.435-1.302-0.868-2.17-0.868H381.877z"/>
<path id="path6" fill="#006567" d="M316.766,21.731c-0.868,0-1.736,0.434-2.17,0.868c-0.435,0.868-0.435,1.736,0,2.604
	l10.417,18.231l-16.061,29.083c-0.434,0.868-0.434,1.736,0,2.604c0.435,0.434,1.303,0.867,2.171,0.867h15.192
	c2.17,0,3.473-1.735,4.341-3.038c0,0,16.061-28.648,16.929-29.517l-10.852-18.666c-0.868-1.302-2.171-3.038-4.341-3.038H316.766z"/>
</svg>
